<svg width="64" height="64" viewBox="0 0 64 64" fill="none" xmlns="http://www.w3.org/2000/svg">
<rect width="64" height="64" rx="12" fill="#0C1122"/>
<path d="M42.3333 32V40C42.3333 41.8856 42.3333 42.8284 41.7475 43.4142C41.1618 44 40.219 44 38.3333 44H24.3333C24.0238 44 23.869 44 23.7385 43.9886C22.2882 43.8617 21.1383 42.7118 21.0114 41.2615C21 41.131 21 40.9762 21 40.6667V40.6667C21 40.3571 21 40.2024 21.0114 40.0719C21.1383 38.6215 22.2882 37.4716 23.7385 37.3447C23.869 37.3333 24.0238 37.3333 24.3333 37.3333H38.3333C40.219 37.3333 41.1618 37.3333 41.7475 36.7475C42.3333 36.1618 42.3333 35.219 42.3333 33.3333V24C42.3333 22.1144 42.3333 21.1716 41.7475 20.5858C41.1618 20 40.219 20 38.3333 20H25C23.1144 20 22.1716 20 21.5858 20.5858C21 21.1716 21 22.1144 21 24V40.6667" stroke="white" stroke-width="2"/>
<path d="M27.6667 29.3334L29.6263 31.293C30.0168 31.6835 30.65 31.6835 31.0405 31.293L35.6667 26.6667" stroke="white" stroke-width="2" stroke-linecap="round"/>
</svg>
