<svg width="34" height="34" viewBox="0 0 34 34" fill="none" xmlns="http://www.w3.org/2000/svg">
<rect width="34" height="34" rx="4" fill="#2777C6"/>
<path d="M20.321 19.8416C21.4492 20.1236 22.5371 20.4863 23.5846 21.0101C24.6322 21.4935 25.5589 22.0979 26.4453 22.7829C27.3317 23.4678 28.1375 24.2333 28.903 25.0795C29.6686 25.9256 30.3132 26.812 30.8773 27.8192H26.6467C26.0021 27.0537 25.3171 26.3688 24.5516 25.7644C23.7861 25.16 22.94 24.6362 22.0536 24.193C21.1672 23.7498 20.2405 23.4275 19.2735 23.1858C18.3065 22.944 17.2992 22.8232 16.2114 22.8232C15.1235 22.8232 14.1162 22.944 13.1089 23.1858C12.1017 23.4275 11.175 23.7498 10.3289 24.193C9.44246 24.6362 8.63664 25.16 7.87111 25.7644C7.10558 26.3688 6.38034 27.0537 5.77597 27.8192H1.54541C2.10949 26.812 2.75414 25.9256 3.51967 25.0392C4.2852 24.193 5.09102 23.4275 6.01772 22.7426C6.94441 22.0576 7.9114 21.4935 8.91868 21.0101C9.96624 20.5266 11.0541 20.1236 12.1823 19.8416C11.175 19.5999 10.2483 19.2775 9.40217 18.8746C8.51577 18.4717 7.70994 17.9882 6.90412 17.4241C6.0983 16.8601 5.37306 16.2557 4.68811 15.5708C4.00317 14.8858 3.3988 14.1203 2.83472 13.3547C3.11676 12.9115 3.3988 12.5086 3.76142 12.1057C4.08375 11.7028 4.44637 11.3402 4.80899 10.9776C5.17161 10.615 5.53423 10.212 5.97743 9.88971C6.38034 9.56739 6.78325 9.24506 7.18616 8.96302C7.22645 8.6004 7.30703 8.27807 7.4682 7.99603C7.62936 7.714 7.83082 7.43196 8.07256 7.19021C8.31431 6.94847 8.59635 6.74701 8.91868 6.62614C9.241 6.50526 9.56333 6.42468 9.92595 6.42468C10.3289 6.42468 10.6915 6.50526 11.0138 6.66643C11.3361 6.82759 11.6585 7.02905 11.9002 7.2708C12.142 7.51254 12.3837 7.83487 12.5046 8.1572C12.7463 8.51982 12.8269 8.88244 12.8269 9.28535C12.8269 9.68826 12.7463 10.0509 12.5852 10.3732C12.424 10.6955 12.2225 11.0179 11.9808 11.2596C11.7391 11.5014 11.4167 11.7028 11.0944 11.864C10.7721 11.9849 10.4094 12.0654 10.0065 12.0654C9.92595 12.0654 9.84537 12.0654 9.7245 12.0654C9.64392 12.0654 9.52304 12.0654 9.44246 12.0251C9.36188 12.0251 9.2813 11.9849 9.16042 11.9446C9.07984 11.9043 8.95897 11.864 8.87839 11.8237C8.71722 11.9446 8.55606 12.0654 8.43518 12.1863C8.31431 12.3072 8.15315 12.4281 7.99198 12.5489C7.83082 12.6698 7.66965 12.7907 7.54878 12.9115C7.42791 13.0324 7.26674 13.1533 7.14587 13.3145C7.75024 13.8785 8.3546 14.4023 9.03955 14.8455C9.7245 15.329 10.4497 15.7319 11.2153 16.014C11.9808 16.3363 12.7866 16.578 13.6327 16.7392C14.4788 16.9004 15.3652 17.0212 16.2114 17.0212C17.0978 17.0212 17.9439 16.9407 18.79 16.7392C19.6361 16.578 20.4419 16.296 21.2075 16.014C21.973 15.6916 22.6982 15.2887 23.3832 14.8455C24.0681 14.362 24.6725 13.8382 25.2769 13.3145H25.3171C25.3171 13.2742 25.3171 13.2339 25.3171 13.1936C25.3171 13.1533 25.3171 13.113 25.3171 13.0727C25.3171 13.0324 25.3171 12.9921 25.3171 12.9518C25.3171 12.9115 25.3171 12.8713 25.3171 12.831C25.3171 12.4281 25.3977 12.0654 25.5186 11.7028C25.6395 11.3402 25.8812 11.0179 26.123 10.7358C26.405 10.4538 26.7273 10.2523 27.09 10.1315C27.4526 10.0106 27.8152 9.93001 28.2181 9.93001C28.621 9.93001 28.9836 10.0106 29.3463 10.1315C29.7089 10.2523 29.9909 10.4941 30.2729 10.7358C30.5147 11.0179 30.7564 11.3402 30.8773 11.7028C31.0385 12.0654 31.1191 12.4281 31.1191 12.831C31.1191 13.2339 31.0385 13.5965 30.8773 13.9591C30.7161 14.3217 30.5147 14.6038 30.2729 14.8858C30.0312 15.1276 29.7089 15.3693 29.3463 15.4902C28.9836 15.6513 28.621 15.7319 28.2181 15.7319C28.1375 15.7319 28.0972 15.7319 28.0569 15.7319C28.0166 15.7319 27.9764 15.7319 27.8958 15.7319C27.8555 15.7319 27.7749 15.7319 27.7346 15.6916C27.6943 15.6916 27.654 15.6513 27.5734 15.6513C27.09 16.1348 26.5662 16.578 26.0021 17.0212C25.438 17.4644 24.8337 17.8673 24.2293 18.1897C23.6249 18.5523 22.9803 18.8746 22.2953 19.1567C21.7312 19.479 21.006 19.6804 20.321 19.8416Z" fill="white"/>
<path d="M14.4389 9.68794C14.4389 9.64765 14.4389 9.60736 14.4389 9.56707C14.4389 9.52678 14.4389 9.48649 14.4389 9.4462C14.4389 9.4059 14.4389 9.36561 14.4389 9.32532C14.4389 9.28503 14.4389 9.24474 14.4389 9.20445C14.4389 8.9627 14.3986 8.72096 14.3986 8.47921C14.3583 8.23746 14.318 7.95542 14.2374 7.75397C14.1569 7.51222 14.036 7.27048 13.9151 7.06902C13.7942 6.86757 13.6331 6.62582 13.5122 6.46465C13.7137 6.42436 13.9151 6.38407 14.1569 6.38407C14.3986 6.38407 14.6404 6.34378 14.8821 6.34378C15.1238 6.34378 15.3656 6.30349 15.6073 6.30349C15.8088 6.18262 16.0505 6.18262 16.252 6.18262C17.1384 6.18262 17.9845 6.2632 18.8306 6.38407C19.6767 6.50495 20.4826 6.7064 21.2884 6.98844C22.0942 7.23019 22.8597 7.55251 23.585 7.95542C24.3102 8.31804 25.0355 8.76125 25.6801 9.24474C25.4384 9.4059 25.2369 9.60736 25.0355 9.80881C24.834 10.0103 24.6728 10.252 24.5117 10.4938C24.3908 10.7355 24.2296 10.9773 24.1088 11.2593C23.9879 11.5413 23.9073 11.8234 23.867 12.1054C23.3432 11.7025 22.7792 11.3399 22.1748 11.0175C21.5704 10.6952 20.9258 10.4535 20.3214 10.2117C19.6767 10.0103 19.0321 9.84911 18.3471 9.72823C17.6622 9.64765 16.9369 9.56707 16.252 9.56707C16.0908 9.56707 15.9297 9.56707 15.7685 9.56707C15.6073 9.56707 15.4462 9.56707 15.285 9.56707C15.1238 9.56707 14.9627 9.56707 14.8418 9.60736C14.7209 9.60736 14.6001 9.64765 14.4389 9.68794Z" fill="white"/>
<path d="M13.5928 13.5557C13.5928 13.1528 13.6734 12.7902 13.8345 12.4679C13.9957 12.1455 14.1971 11.8232 14.4389 11.5815C14.6806 11.3397 15.003 11.098 15.3253 10.9771C15.6476 10.8159 16.0102 10.7354 16.4131 10.7354C16.8161 10.7354 17.1787 10.8159 17.5413 10.9771C17.9039 11.1383 18.186 11.3397 18.468 11.5815C18.7097 11.8232 18.9112 12.1455 19.0724 12.4679C19.1932 12.7902 19.2738 13.1528 19.2738 13.5557C19.2738 13.9586 19.1932 14.3213 19.0724 14.6436C18.9515 14.9659 18.75 15.2882 18.468 15.53C18.2262 15.7717 17.9039 16.0135 17.5413 16.1344C17.1787 16.2955 16.8161 16.3761 16.4131 16.3761C16.0102 16.3761 15.6476 16.2955 15.3253 16.1344C15.003 15.9732 14.6806 15.7717 14.4389 15.53C14.1971 15.2882 13.9554 14.9659 13.8345 14.6436C13.6734 14.3213 13.5928 13.9586 13.5928 13.5557Z" fill="white"/>
</svg>
