<svg width="34" height="34" viewBox="0 0 34 34" fill="none" xmlns="http://www.w3.org/2000/svg">
<rect width="34" height="34" rx="6" fill="#14A800"/>
<path d="M22.8782 18.6066C22.248 18.5728 21.6355 18.3937 21.0921 18.0844C20.5487 17.775 20.0903 17.3445 19.7554 16.8289C20.1593 13.7267 21.3349 12.7624 22.8902 12.7624C24.4456 12.7624 25.6272 13.9243 25.6272 15.6671C25.6272 17.4099 24.4215 18.5718 22.8902 18.5718L22.8782 18.6066ZM22.8902 10.8221C21.7926 10.7792 20.7143 11.1095 19.8437 11.7551C18.9732 12.4007 18.3658 13.3207 18.1277 14.3542C17.6117 13.3123 17.2213 12.2169 16.9643 11.0893H13.1241V15.6787C13.1241 17.346 12.3404 18.5834 10.8032 18.5834C9.26592 18.5834 8.39179 17.3518 8.39179 15.6787V11.0893H6.18538V15.6787C6.1353 16.9505 6.59018 18.1928 7.45738 19.1527C7.88066 19.5968 8.39773 19.9484 8.9738 20.1839C9.54987 20.4194 10.1716 20.5333 10.7971 20.5179C13.4557 20.5179 15.3185 18.5485 15.3185 15.731V12.6288C15.77 14.2981 16.5164 15.88 17.5249 17.3053L16.3433 23.8002H18.5859L19.3636 19.1992C19.621 19.4128 19.8951 19.607 20.1835 19.7801C20.9326 20.2361 21.7938 20.4926 22.6792 20.5237H22.8842C23.5429 20.5303 24.1962 20.4084 24.8047 20.1653C25.4133 19.9223 25.9645 19.563 26.4252 19.1093C26.8859 18.6556 27.2465 18.1167 27.4855 17.5252C27.7244 16.9336 27.8367 16.3015 27.8155 15.6671C27.8309 15.0349 27.7142 14.4063 27.4724 13.8184C27.2307 13.2306 26.8687 12.6956 26.4082 12.2453C25.9476 11.7949 25.3977 11.4384 24.7913 11.1969C24.1849 10.9554 23.5343 10.8339 22.8782 10.8395" fill="white"/>
</svg>
