<svg width="24" height="24" viewBox="0 0 24 24" fill="none" xmlns="http://www.w3.org/2000/svg">
<path fill-rule="evenodd" clip-rule="evenodd" d="M21 12C21 16.9706 16.9706 21 12 21C7.02944 21 3 16.9706 3 12C3 7.02944 7.02944 3 12 3C16.9706 3 21 7.02944 21 12ZM12 20C16.4183 20 20 16.4183 20 12C20 7.58172 16.4183 4 12 4C7.58172 4 4 7.58172 4 12C4 16.4183 7.58172 20 12 20Z" fill="#0D1221"/>
<path fill-rule="evenodd" clip-rule="evenodd" d="M12 8C12.2761 8 12.5 8.22386 12.5 8.5V11.5H16.5C16.7761 11.5 17 11.7239 17 12C17 12.2761 16.7761 12.5 16.5 12.5H12.25C11.8358 12.5 11.5 12.1642 11.5 11.75V8.5C11.5 8.22386 11.7239 8 12 8Z" fill="#0D1221"/>
</svg>
