<svg width="24" height="24" viewBox="0 0 24 24" fill="none" xmlns="http://www.w3.org/2000/svg">
<path fill-rule="evenodd" clip-rule="evenodd" d="M8.3999 6.9999C8.3999 6.66853 8.66853 6.3999 8.9999 6.3999L12.9999 6.3999C13.3313 6.3999 13.5999 6.66853 13.5999 6.9999C13.5999 7.33127 13.3313 7.5999 12.9999 7.5999L8.9999 7.5999C8.66853 7.5999 8.3999 7.33127 8.3999 6.9999Z" fill="#0D1221"/>
<path fill-rule="evenodd" clip-rule="evenodd" d="M8.3999 14.9999C8.3999 14.6685 8.66853 14.3999 8.9999 14.3999L11.9999 14.3999C12.3313 14.3999 12.5999 14.6685 12.5999 14.9999C12.5999 15.3313 12.3313 15.5999 11.9999 15.5999L8.9999 15.5999C8.66853 15.5999 8.3999 15.3313 8.3999 14.9999Z" fill="#0D1221"/>
<path fill-rule="evenodd" clip-rule="evenodd" d="M8.3999 10.9999C8.3999 10.6685 8.66853 10.3999 8.9999 10.3999L14.9999 10.3999C15.3313 10.3999 15.5999 10.6685 15.5999 10.9999C15.5999 11.3313 15.3313 11.5999 14.9999 11.5999L8.9999 11.5999C8.66853 11.5999 8.3999 11.3313 8.3999 10.9999Z" fill="#0D1221"/>
<path fill-rule="evenodd" clip-rule="evenodd" d="M10.955 21.6001L11.9999 21.6001C12.3313 21.6001 12.5999 21.3315 12.5999 21.0001C12.5999 20.6687 12.3313 20.4001 11.9999 20.4001H10.9999C9.56873 20.4001 8.5557 20.3988 7.78804 20.2956C7.03763 20.1947 6.61213 20.0064 6.30285 19.6972C5.99357 19.3879 5.80528 18.9624 5.70439 18.212C5.60118 17.4443 5.5999 16.4313 5.5999 15.0001V9.0001C5.5999 7.56892 5.60118 6.5559 5.70439 5.78823C5.80528 5.03782 5.99357 4.61232 6.30285 4.30304C6.61213 3.99376 7.03763 3.80547 7.78804 3.70458C8.5557 3.60137 9.56873 3.6001 10.9999 3.6001H12.9999C14.4311 3.6001 15.4441 3.60137 16.2118 3.70458C16.9622 3.80547 17.3877 3.99376 17.697 4.30304C18.0062 4.61232 18.1945 5.03782 18.2954 5.78823C18.3986 6.5559 18.3999 7.56892 18.3999 9.0001V11.0001C18.3999 11.3315 18.6685 11.6001 18.9999 11.6001C19.3313 11.6001 19.5999 11.3315 19.5999 11.0001V8.95522C19.5999 7.57909 19.5999 6.48525 19.4847 5.62833C19.3659 4.74486 19.1149 4.02391 18.5455 3.45451C17.9761 2.88511 17.2551 2.63406 16.3717 2.51528C15.5147 2.40007 14.4209 2.40008 13.0448 2.4001H10.955C9.57889 2.40008 8.48506 2.40007 7.62814 2.51528C6.74466 2.63406 6.02372 2.88511 5.45432 3.45451C4.88492 4.02391 4.63387 4.74486 4.51509 5.62833C4.39988 6.48525 4.39989 7.57909 4.3999 8.95522V15.045C4.39989 16.4211 4.39988 17.5149 4.51509 18.3719C4.63387 19.2553 4.88492 19.9763 5.45432 20.5457C6.02372 21.1151 6.74466 21.3661 7.62814 21.4849C8.48506 21.6001 9.57889 21.6001 10.955 21.6001Z" fill="#0D1221"/>
<path fill-rule="evenodd" clip-rule="evenodd" d="M17.4999 15.5999C16.4506 15.5999 15.5999 16.4506 15.5999 17.4999C15.5999 18.5492 16.4506 19.3999 17.4999 19.3999C18.5492 19.3999 19.3999 18.5492 19.3999 17.4999C19.3999 16.4506 18.5492 15.5999 17.4999 15.5999ZM14.3999 17.4999C14.3999 15.7878 15.7878 14.3999 17.4999 14.3999C19.212 14.3999 20.5999 15.7878 20.5999 17.4999C20.5999 19.212 19.212 20.5999 17.4999 20.5999C15.7878 20.5999 14.3999 19.212 14.3999 17.4999Z" fill="#0D1221"/>
<path fill-rule="evenodd" clip-rule="evenodd" d="M19.0756 19.0756C19.31 18.8413 19.6899 18.8413 19.9242 19.0756L21.4242 20.5756C21.6585 20.81 21.6585 21.1899 21.4242 21.4242C21.1899 21.6585 20.81 21.6585 20.5756 21.4242L19.0756 19.9242C18.8413 19.6899 18.8413 19.31 19.0756 19.0756Z" fill="#0D1221"/>
</svg>
