<svg width="24" height="24" viewBox="0 0 24 24" fill="none" xmlns="http://www.w3.org/2000/svg">
<path fill-rule="evenodd" clip-rule="evenodd" d="M10.9999 5.5999C8.01756 5.5999 5.5999 8.01756 5.5999 10.9999C5.5999 13.9822 8.01756 16.3999 10.9999 16.3999C13.9822 16.3999 16.3999 13.9822 16.3999 10.9999C16.3999 8.01756 13.9822 5.5999 10.9999 5.5999ZM4.3999 10.9999C4.3999 7.35482 7.35482 4.3999 10.9999 4.3999C14.645 4.3999 17.5999 7.35482 17.5999 10.9999C17.5999 14.645 14.645 17.5999 10.9999 17.5999C7.35482 17.5999 4.3999 14.645 4.3999 10.9999Z" fill="#0D1221"/>
<path fill-rule="evenodd" clip-rule="evenodd" d="M16.5756 16.5756C16.81 16.3413 17.1899 16.3413 17.4242 16.5756L20.4242 19.5756C20.6585 19.81 20.6585 20.1899 20.4242 20.4242C20.1899 20.6585 19.81 20.6585 19.5756 20.4242L16.5756 17.4242C16.3413 17.1899 16.3413 16.81 16.5756 16.5756Z" fill="#0D1221"/>
</svg>
